<svg id="Layer_1" data-name="Layer 1" xmlns="http://www.w3.org/2000/svg" viewBox="0 0 81.63 81.63"><defs><style>.cls-1{fill:#dfffd6;}.cls-2{fill:#e8d7ff;}</style></defs><circle class="cls-1" cx="40.82" cy="40.82" r="39.82"/><path d="M103.06,48.48A38.82,38.82,0,1,1,64.24,87.29a38.85,38.85,0,0,1,38.82-38.81m0-2a40.82,40.82,0,1,0,40.81,40.81,40.82,40.82,0,0,0-40.81-40.81Z" transform="translate(-62.24 -46.48)"/><path class="cls-2" d="M79.12,90.24a2.94,2.94,0,1,1,0-5.87h48.12a2.94,2.94,0,1,1,0,5.87Z" transform="translate(-62.24 -46.48)"/><path d="M127.24,85.37a1.94,1.94,0,1,1,0,3.87H79.12a1.94,1.94,0,1,1,0-3.87h48.12m0-2H79.12a4,4,0,0,0-3.94,3.94h0a4,4,0,0,0,3.94,3.93h48.12a4,4,0,0,0,3.94-3.93h0a4,4,0,0,0-3.94-3.94Z" transform="translate(-62.24 -46.48)"/><path class="cls-2" d="M79,104.93a2.94,2.94,0,1,1,0-5.88H127.1a2.94,2.94,0,0,1,0,5.88Z" transform="translate(-62.24 -46.48)"/><path d="M127.1,100.05a1.94,1.94,0,0,1,0,3.88H79a1.94,1.94,0,1,1,0-3.88H127.1m0-2H79A4,4,0,0,0,75,102h0A4,4,0,0,0,79,105.93H127.1A4,4,0,0,0,131,102h0a4,4,0,0,0-3.94-3.94Z" transform="translate(-62.24 -46.48)"/><path class="cls-2" d="M79.12,75.56a2.94,2.94,0,1,1,0-5.87h48.12a2.94,2.94,0,1,1,0,5.87Z" transform="translate(-62.24 -46.48)"/><path d="M127.24,70.69a1.94,1.94,0,1,1,0,3.87H79.12a1.94,1.94,0,1,1,0-3.87h48.12m0-2H79.12a4,4,0,0,0-3.94,3.94h0a4,4,0,0,0,3.94,3.93h48.12a4,4,0,0,0,3.94-3.93h0a4,4,0,0,0-3.94-3.94Z" transform="translate(-62.24 -46.48)"/></svg>