<svg id="Layer_1" data-name="Layer 1" xmlns="http://www.w3.org/2000/svg" xmlns:xlink="http://www.w3.org/1999/xlink" viewBox="0 0 183.46 339.26"><defs><style>.cls-1,.cls-2{stroke:#000;stroke-miterlimit:10;stroke-width:3px;}.cls-1{fill:url(#linear-gradient);}.cls-2{fill:url(#linear-gradient-2);}</style><linearGradient id="linear-gradient" x1="313.17" y1="413.53" x2="490.23" y2="413.53" gradientTransform="matrix(1, 0, 0, -1, 0, 800)" gradientUnits="userSpaceOnUse"><stop offset="0" stop-color="#ffd3e8"/><stop offset="0.69" stop-color="#e8d7ff"/></linearGradient><linearGradient id="linear-gradient-2" x1="309.77" y1="586.44" x2="361.99" y2="586.44" gradientTransform="matrix(1, 0, 0, -1, -308.27, 614.05)" xlink:href="#linear-gradient"/></defs><path class="cls-1" d="M403,315a68.37,68.37,0,0,0-34.8,9.18,6,6,0,0,1-9-5.15V255.19a6,6,0,0,0-6-6H319.14a6,6,0,0,0-6,6V514.92a6,6,0,0,0,6,6h34.09a6,6,0,0,0,6-6h0a6,6,0,0,1,9.38-4.88c11.69,8.3,24.52,13.67,35.8,13.67,43.77,0,85.85-38.41,85.85-107C490.23,355.68,447,315,403,315Zm-3.68,158.42c-15.53,0-30.78-8.19-40.1-20.62V385.61c9-12.71,24.57-21.46,40.1-21.46,26.83,0,44,25.7,44,55.35C443.35,449.44,426.12,473.44,399.29,473.44Z" transform="translate(-308.27 -185.95)"/><circle class="cls-2" cx="27.61" cy="27.61" r="26.11"/></svg>